<svg width="124" height="75" viewBox="0 0 124 75" fill="none" xmlns="http://www.w3.org/2000/svg">
<path d="M123.173 3.82333C122.548 2.31651 121.35 1.11909 119.843 0.493333C119.102 0.177347 118.306 0.00974326 117.5 0H86.6667C85.0312 0 83.4626 0.649702 82.3062 1.80618C81.1497 2.96265 80.5 4.53117 80.5 6.16667C80.5 7.80217 81.1497 9.37068 82.3062 10.5272C83.4626 11.6836 85.0312 12.3333 86.6667 12.3333H102.638L68.1667 46.805L47.8783 26.455C47.3051 25.877 46.623 25.4182 45.8716 25.1052C45.1201 24.7921 44.3141 24.6309 43.5 24.6309C42.6859 24.6309 41.8799 24.7921 41.1284 25.1052C40.377 25.4182 39.6949 25.877 39.1217 26.455L2.12167 63.455C1.54367 64.0283 1.08491 64.7103 0.771836 65.4618C0.458763 66.2132 0.297577 67.0193 0.297577 67.8333C0.297577 68.6474 0.458763 69.4534 0.771836 70.2049C1.08491 70.9564 1.54367 71.6384 2.12167 72.2117C2.69494 72.7897 3.37698 73.2484 4.12844 73.5615C4.87991 73.8746 5.68593 74.0358 6.5 74.0358C7.31407 74.0358 8.12009 73.8746 8.87156 73.5615C9.62302 73.2484 10.3051 72.7897 10.8783 72.2117L43.5 39.5283L63.7883 59.8783C64.3616 60.4563 65.0436 60.9151 65.7951 61.2282C66.5466 61.5412 67.3526 61.7024 68.1667 61.7024C68.9807 61.7024 69.7868 61.5412 70.5382 61.2282C71.2897 60.9151 71.9717 60.4563 72.545 59.8783L111.333 21.0283V37C111.333 38.6355 111.983 40.204 113.14 41.3605C114.296 42.517 115.864 43.1667 117.5 43.1667C119.135 43.1667 120.704 42.517 121.86 41.3605C123.017 40.204 123.667 38.6355 123.667 37V6.16667C123.657 5.36082 123.489 4.5647 123.173 3.82333Z" fill="black" fill-opacity="0.13"/>
</svg>
